<svg xmlns="http://www.w3.org/2000/svg" xmlns:xlink="http://www.w3.org/1999/xlink" width="500" zoomAndPan="magnify" viewBox="0 0 375 374.999991" height="500" preserveAspectRatio="xMidYMid meet" version="1.0"><defs><clipPath id="91c237295f"><path d="M 25.871094 214.238281 L 175.871094 214.238281 L 175.871094 364.238281 L 25.871094 364.238281 Z M 25.871094 214.238281 " clip-rule="nonzero"/></clipPath><clipPath id="e050db4264"><path d="M 200.035156 213.515625 L 350.035156 213.515625 L 350.035156 363.515625 L 200.035156 363.515625 Z M 200.035156 213.515625 " clip-rule="nonzero"/></clipPath><clipPath id="717e895385"><path d="M 93.605469 281.4375 L 128.257812 281.4375 L 128.257812 316.09375 L 93.605469 316.09375 Z M 93.605469 281.4375 " clip-rule="nonzero"/></clipPath><clipPath id="adea5c98ad"><path d="M 110.929688 281.4375 C 101.359375 281.4375 93.605469 289.195312 93.605469 298.765625 C 93.605469 308.335938 101.359375 316.09375 110.929688 316.09375 C 120.5 316.09375 128.257812 308.335938 128.257812 298.765625 C 128.257812 289.195312 120.5 281.4375 110.929688 281.4375 Z M 110.929688 281.4375 " clip-rule="nonzero"/></clipPath><clipPath id="96fa6000e2"><path d="M 0.605469 0.4375 L 35.257812 0.4375 L 35.257812 35.09375 L 0.605469 35.09375 Z M 0.605469 0.4375 " clip-rule="nonzero"/></clipPath><clipPath id="9891fdc8aa"><path d="M 17.929688 0.4375 C 8.359375 0.4375 0.605469 8.195312 0.605469 17.765625 C 0.605469 27.335938 8.359375 35.09375 17.929688 35.09375 C 27.5 35.09375 35.257812 27.335938 35.257812 17.765625 C 35.257812 8.195312 27.5 0.4375 17.929688 0.4375 Z M 17.929688 0.4375 " clip-rule="nonzero"/></clipPath><clipPath id="c49624bbbf"><rect x="0" width="36" y="0" height="36"/></clipPath><clipPath id="80d8f9f746"><path d="M 241.71875 281.78125 L 276.371094 281.78125 L 276.371094 316.433594 L 241.71875 316.433594 Z M 241.71875 281.78125 " clip-rule="nonzero"/></clipPath><clipPath id="a45dc57dda"><path d="M 259.042969 281.78125 C 249.476562 281.78125 241.71875 289.539062 241.71875 299.109375 C 241.71875 308.675781 249.476562 316.433594 259.042969 316.433594 C 268.613281 316.433594 276.371094 308.675781 276.371094 299.109375 C 276.371094 289.539062 268.613281 281.78125 259.042969 281.78125 Z M 259.042969 281.78125 " clip-rule="nonzero"/></clipPath><clipPath id="7c118daca1"><path d="M 0.71875 0.78125 L 35.371094 0.78125 L 35.371094 35.433594 L 0.71875 35.433594 Z M 0.71875 0.78125 " clip-rule="nonzero"/></clipPath><clipPath id="4c743e7331"><path d="M 18.042969 0.78125 C 8.476562 0.78125 0.71875 8.539062 0.71875 18.109375 C 0.71875 27.675781 8.476562 35.433594 18.042969 35.433594 C 27.613281 35.433594 35.371094 27.675781 35.371094 18.109375 C 35.371094 8.539062 27.613281 0.78125 18.042969 0.78125 Z M 18.042969 0.78125 " clip-rule="nonzero"/></clipPath><clipPath id="7f5f4e17ff"><rect x="0" width="36" y="0" height="36"/></clipPath><clipPath id="5d785dbe1d"><path d="M 73 13 L 184 13 L 184 121 L 73 121 Z M 73 13 " clip-rule="nonzero"/></clipPath><clipPath id="7000ad072e"><path d="M 73.394531 14.667969 L 180.601562 12.148438 L 183.121094 119.359375 L 75.914062 121.878906 Z M 73.394531 14.667969 " clip-rule="nonzero"/></clipPath><clipPath id="8a6839efb0"><path d="M 105.554688 13.914062 C 146.90625 12.941406 181.394531 45.84375 182.367188 87.195312 L 183.121094 119.359375 L 150.960938 120.113281 C 109.605469 121.085938 75.121094 88.183594 74.148438 46.832031 L 73.394531 14.667969 Z M 105.554688 13.914062 " clip-rule="nonzero"/></clipPath><clipPath id="0fa401df2d"><path d="M 0.199219 0 L 110.359375 0 L 110.359375 108 L 0.199219 108 Z M 0.199219 0 " clip-rule="nonzero"/></clipPath><clipPath id="3f4565b2d9"><path d="M 0.394531 1.667969 L 107.601562 -0.851562 L 110.121094 106.359375 L 2.914062 108.878906 Z M 0.394531 1.667969 " clip-rule="nonzero"/></clipPath><clipPath id="774431dde1"><path d="M 32.554688 0.914062 C 73.90625 -0.0585938 108.394531 32.84375 109.367188 74.195312 L 110.121094 106.359375 L 77.960938 107.113281 C 36.605469 108.085938 2.121094 75.183594 1.148438 33.832031 L 0.394531 1.667969 Z M 32.554688 0.914062 " clip-rule="nonzero"/></clipPath><clipPath id="0261e5739b"><rect x="0" width="111" y="0" height="108"/></clipPath><clipPath id="7bacaad0bb"><path d="M 188.308594 12.148438 L 295.125 12.148438 L 295.125 118.964844 L 188.308594 118.964844 Z M 188.308594 12.148438 " clip-rule="nonzero"/></clipPath><clipPath id="4874e92589"><path d="M 295.125 44.195312 C 295.125 85.394531 261.554688 118.964844 220.355469 118.964844 L 188.308594 118.964844 L 188.308594 86.921875 C 188.308594 45.71875 221.878906 12.148438 263.082031 12.148438 L 295.125 12.148438 Z M 295.125 44.195312 " clip-rule="nonzero"/></clipPath><clipPath id="44586ccf3c"><path d="M 0.308594 0.148438 L 107.125 0.148438 L 107.125 106.964844 L 0.308594 106.964844 Z M 0.308594 0.148438 " clip-rule="nonzero"/></clipPath><clipPath id="bc3b179c69"><path d="M 107.125 32.195312 C 107.125 73.394531 73.554688 106.964844 32.355469 106.964844 L 0.308594 106.964844 L 0.308594 74.921875 C 0.308594 33.71875 33.878906 0.148438 75.082031 0.148438 L 107.125 0.148438 Z M 107.125 32.195312 " clip-rule="nonzero"/></clipPath><clipPath id="22b1b5e734"><rect x="0" width="108" y="0" height="107"/></clipPath></defs><path stroke-linecap="butt" transform="matrix(0.529056, -0.531601, 0.531601, 0.529056, 86.974136, 205.735827)" fill="none" stroke-linejoin="miter" d="M 2.602501 23.551677 C 57.692081 1.483556 112.787649 1.48314 167.874475 23.550392 " stroke="#48b3af" stroke-width="14" stroke-opacity="1" stroke-miterlimit="4"/><path stroke-linecap="butt" transform="matrix(0.53033, 0.53033, -0.53033, 0.53033, 195.270256, 114.994951)" fill="none" stroke-linejoin="miter" d="M 2.600485 23.549891 C 57.695892 1.482265 112.783933 1.482265 167.871974 23.549891 " stroke="#48b3af" stroke-width="14" stroke-opacity="1" stroke-miterlimit="4"/><g clip-path="url(#91c237295f)"><path fill="#e5e7eb" d="M 100.871094 214.238281 C 107.753906 214.238281 114.394531 215.117188 120.792969 216.875 C 127.1875 218.632812 133.171875 221.144531 138.738281 224.417969 C 144.304688 227.6875 149.355469 231.59375 153.898438 236.136719 C 158.4375 240.675781 162.34375 245.753906 165.617188 251.371094 C 168.886719 256.984375 171.402344 262.96875 173.160156 269.316406 C 174.917969 275.664062 175.820312 282.304688 175.871094 289.238281 C 175.871094 296.121094 174.992188 302.761719 173.234375 309.160156 C 171.476562 315.554688 168.960938 321.535156 165.691406 327.101562 C 162.417969 332.667969 158.511719 337.722656 153.972656 342.265625 C 149.429688 346.804688 144.351562 350.710938 138.738281 353.984375 C 133.121094 357.253906 127.140625 359.769531 120.792969 361.527344 C 114.445312 363.285156 107.804688 364.1875 100.871094 364.238281 C 93.984375 364.238281 87.34375 363.359375 80.949219 361.601562 C 74.550781 359.84375 68.570312 357.328125 63.003906 354.054688 C 57.4375 350.785156 52.382812 346.878906 47.84375 342.335938 C 43.300781 337.796875 39.394531 332.71875 36.125 327.101562 C 32.851562 321.488281 30.339844 315.53125 28.582031 309.230469 C 26.824219 302.933594 25.917969 296.269531 25.871094 289.238281 C 25.871094 282.351562 26.75 275.710938 28.507812 269.316406 C 30.265625 262.917969 32.78125 256.9375 36.050781 251.371094 C 39.324219 245.804688 43.230469 240.75 47.769531 236.210938 C 52.3125 231.667969 57.390625 227.761719 63.003906 224.492188 C 68.621094 221.21875 74.578125 218.703125 80.875 216.945312 C 87.175781 215.1875 93.839844 214.285156 100.871094 214.238281 Z M 100.871094 354.863281 C 106.875 354.863281 112.664062 354.082031 118.230469 352.519531 C 123.796875 350.957031 129.019531 348.757812 133.902344 345.925781 C 138.785156 343.09375 143.230469 339.652344 147.234375 335.597656 C 151.238281 331.546875 154.65625 327.128906 157.488281 322.34375 C 160.320312 317.558594 162.539062 312.332031 164.152344 306.667969 C 165.761719 301.003906 166.542969 295.195312 166.496094 289.238281 C 166.496094 283.230469 165.714844 277.445312 164.152344 271.878906 C 162.589844 266.3125 160.390625 261.085938 157.558594 256.203125 C 154.726562 251.320312 151.285156 246.878906 147.234375 242.875 C 143.179688 238.871094 138.761719 235.453125 133.976562 232.621094 C 129.191406 229.789062 123.964844 227.566406 118.300781 225.957031 C 112.636719 224.34375 106.828125 223.5625 100.871094 223.613281 C 94.863281 223.613281 89.078125 224.394531 83.511719 225.957031 C 77.945312 227.519531 72.722656 229.714844 67.839844 232.546875 C 62.957031 235.378906 58.511719 238.820312 54.507812 242.875 C 50.503906 246.925781 47.085938 251.347656 44.253906 256.132812 C 41.421875 260.917969 39.199219 266.140625 37.589844 271.804688 C 35.976562 277.46875 35.195312 283.28125 35.246094 289.238281 C 35.246094 295.242188 36.027344 301.027344 37.589844 306.59375 C 39.152344 312.160156 41.347656 317.386719 44.179688 322.269531 C 47.011719 327.152344 50.457031 331.59375 54.507812 335.597656 C 58.5625 339.601562 62.980469 343.019531 67.765625 345.851562 C 72.550781 348.683594 77.773438 350.90625 83.4375 352.519531 C 89.101562 354.128906 94.914062 354.910156 100.871094 354.863281 Z M 100.871094 354.863281 " fill-opacity="1" fill-rule="nonzero"/></g><g clip-path="url(#e050db4264)"><path fill="#e5e7eb" d="M 275.035156 213.515625 C 281.921875 213.515625 288.5625 214.394531 294.957031 216.152344 C 301.355469 217.910156 307.335938 220.425781 312.902344 223.699219 C 318.46875 226.96875 323.523438 230.875 328.0625 235.417969 C 332.605469 239.957031 336.511719 245.035156 339.78125 250.652344 C 343.054688 256.265625 345.566406 262.246094 347.324219 268.59375 C 349.082031 274.941406 349.988281 281.582031 350.035156 288.515625 C 350.035156 295.402344 349.15625 302.042969 347.398438 308.4375 C 345.640625 314.835938 343.125 320.816406 339.855469 326.382812 C 336.582031 331.949219 332.675781 337.003906 328.136719 341.542969 C 323.59375 346.085938 318.515625 349.992188 312.902344 353.261719 C 307.285156 356.535156 301.304688 359.050781 294.957031 360.808594 C 288.609375 362.566406 281.96875 363.46875 275.035156 363.515625 C 268.152344 363.515625 261.511719 362.636719 255.113281 360.878906 C 248.71875 359.121094 242.734375 356.609375 237.167969 353.335938 C 231.601562 350.066406 226.550781 346.160156 222.007812 341.617188 C 217.46875 337.078125 213.5625 332 210.289062 326.382812 C 207.019531 320.769531 204.503906 314.8125 202.746094 308.511719 C 200.988281 302.214844 200.085938 295.546875 200.035156 288.515625 C 200.035156 281.632812 200.914062 274.992188 202.671875 268.59375 C 204.429688 262.199219 206.945312 256.21875 210.214844 250.652344 C 213.488281 245.085938 217.394531 240.03125 221.933594 235.488281 C 226.476562 230.949219 231.554688 227.042969 237.167969 223.769531 C 242.785156 220.5 248.742188 217.984375 255.039062 216.226562 C 261.339844 214.46875 268.003906 213.566406 275.035156 213.515625 Z M 275.035156 354.140625 C 281.042969 354.140625 286.828125 353.359375 292.394531 351.796875 C 297.960938 350.234375 303.183594 348.039062 308.066406 345.207031 C 312.949219 342.375 317.394531 338.933594 321.398438 334.878906 C 325.402344 330.828125 328.820312 326.40625 331.652344 321.621094 C 334.484375 316.835938 336.707031 311.613281 338.316406 305.949219 C 339.929688 300.285156 340.710938 294.472656 340.660156 288.515625 C 340.660156 282.511719 339.878906 276.726562 338.316406 271.160156 C 336.753906 265.59375 334.558594 260.367188 331.726562 255.484375 C 328.894531 250.601562 325.449219 246.160156 321.398438 242.15625 C 317.34375 238.152344 312.925781 234.734375 308.140625 231.902344 C 303.355469 229.070312 298.132812 226.847656 292.46875 225.234375 C 286.804688 223.625 280.992188 222.84375 275.035156 222.890625 C 269.03125 222.890625 263.242188 223.671875 257.675781 225.234375 C 252.109375 226.796875 246.886719 228.996094 242.003906 231.828125 C 237.121094 234.660156 232.675781 238.101562 228.671875 242.15625 C 224.667969 246.207031 221.25 250.625 218.417969 255.410156 C 215.585938 260.195312 213.367188 265.421875 211.753906 271.085938 C 210.144531 276.75 209.363281 282.558594 209.410156 288.515625 C 209.410156 294.523438 210.191406 300.308594 211.753906 305.875 C 213.316406 311.441406 215.515625 316.667969 218.347656 321.550781 C 221.179688 326.433594 224.621094 330.875 228.671875 334.878906 C 232.726562 338.882812 237.144531 342.300781 241.929688 345.132812 C 246.714844 347.964844 251.941406 350.1875 257.605469 351.796875 C 263.269531 353.410156 269.078125 354.191406 275.035156 354.140625 Z M 275.035156 354.140625 " fill-opacity="1" fill-rule="nonzero"/></g><path stroke-linecap="butt" transform="matrix(0.75, 0, 0, 0.75, 166.336736, 264.526007)" fill="none" stroke-linejoin="miter" d="M 4.837477 22.548658 C 21.045812 0.480948 37.254146 0.480948 53.467689 22.548658 " stroke="#e5e7eb" stroke-width="12" stroke-opacity="1" stroke-miterlimit="4"/><g clip-path="url(#717e895385)"><g clip-path="url(#adea5c98ad)"><g transform="matrix(1, 0, 0, 1, 93, 281)"><g clip-path="url(#c49624bbbf)"><g clip-path="url(#96fa6000e2)"><g clip-path="url(#9891fdc8aa)"><path fill="#737373" d="M 0.605469 0.4375 L 35.257812 0.4375 L 35.257812 35.09375 L 0.605469 35.09375 Z M 0.605469 0.4375 " fill-opacity="1" fill-rule="nonzero"/></g></g></g></g></g></g><g clip-path="url(#80d8f9f746)"><g clip-path="url(#a45dc57dda)"><g transform="matrix(1, 0, 0, 1, 241, 281)"><g clip-path="url(#7f5f4e17ff)"><g clip-path="url(#7c118daca1)"><g clip-path="url(#4c743e7331)"><path fill="#737373" d="M 0.71875 0.78125 L 35.371094 0.78125 L 35.371094 35.433594 L 0.71875 35.433594 Z M 0.71875 0.78125 " fill-opacity="1" fill-rule="nonzero"/></g></g></g></g></g></g><g clip-path="url(#5d785dbe1d)"><g clip-path="url(#7000ad072e)"><g clip-path="url(#8a6839efb0)"><g transform="matrix(1, 0, 0, 1, 73, 13)"><g clip-path="url(#0261e5739b)"><g clip-path="url(#0fa401df2d)"><g clip-path="url(#3f4565b2d9)"><g clip-path="url(#774431dde1)"><path fill="#a7e399" d="M 0.394531 1.667969 L 107.601562 -0.851562 L 110.121094 106.359375 L 2.914062 108.878906 Z M 0.394531 1.667969 " fill-opacity="1" fill-rule="nonzero"/></g></g></g></g></g></g></g></g><g clip-path="url(#7bacaad0bb)"><g clip-path="url(#4874e92589)"><g transform="matrix(1, 0, 0, 1, 188, 12)"><g clip-path="url(#22b1b5e734)"><g clip-path="url(#44586ccf3c)"><g clip-path="url(#bc3b179c69)"><path fill="#a7e399" d="M 107.125 0.148438 L 107.125 106.964844 L 0.308594 106.964844 L 0.308594 0.148438 Z M 107.125 0.148438 " fill-opacity="1" fill-rule="nonzero"/></g></g></g></g></g></g></svg>